<svg width="24" height="24" viewBox="0 0 24 24" fill="none" xmlns="http://www.w3.org/2000/svg">
<g clip-path="url(#clip0_27_10717)">
<path d="M24 0H0V24H24V0Z" fill="#5C2874"/>
<path fill-rule="evenodd" clip-rule="evenodd" d="M11.7713 8.15334C10.8795 6.50518 12.3358 5.80245 12.3358 5.80245C12.3358 5.80245 13.0808 7.26717 12.1326 8.20697C12.4178 8.15298 12.6894 8.04285 12.9316 7.88297C13.1739 7.72308 13.3819 7.51664 13.5437 7.27564C14.2012 6.14676 13.5437 5.20414 13.2078 4.66228C13.0509 4.35776 12.9736 4.01852 12.983 3.67609C12.9924 3.33366 13.0881 2.99916 13.2614 2.70367C12.6265 3.01412 10.3433 4.19662 10.3743 6.09032C10.4251 7.82033 11.7713 8.15334 11.7713 8.15334Z" fill="#FAD657"/>
<path d="M13.4392 9.01976H10.5605V11.5908H13.4392V9.01976Z" fill="white"/>
<path d="M16.1883 19.1486H15.6012V18.7733H13.0387V17.4976H13.7075V15.8438H13.0387V12.2314H10.9587V15.8438H10.2927V17.4976H10.9587V18.7789H8.39898V19.1543H7.74141C7.4747 19.1531 7.21045 19.2053 6.96424 19.3079C6.71803 19.4104 6.49485 19.5612 6.30784 19.7514C6.12083 19.9415 5.97378 20.1672 5.87537 20.4151C5.77696 20.663 5.72917 20.9281 5.73482 21.1947H18.2654C18.2551 20.6499 18.032 20.1308 17.6438 19.7484C17.2556 19.366 16.7332 19.1507 16.1883 19.1486Z" fill="white"/>
<path d="M9.87777 16.4676H8.92669V16.0866C8.92707 16.0612 8.92237 16.0361 8.91286 16.0127C8.90335 15.9892 8.88923 15.9679 8.87133 15.95C8.85343 15.9321 8.83213 15.918 8.80867 15.9085C8.78522 15.899 8.76009 15.8943 8.73478 15.8946H8.30581C8.28074 15.8946 8.25592 15.8996 8.23279 15.9093C8.20966 15.919 8.18869 15.9332 8.17109 15.951C8.1535 15.9689 8.13963 15.9901 8.1303 16.0133C8.12096 16.0366 8.11635 16.0615 8.11672 16.0866V17.2549C8.11635 17.28 8.12096 17.3049 8.1303 17.3282C8.13963 17.3514 8.1535 17.3726 8.17109 17.3905C8.18869 17.4083 8.20966 17.4225 8.23279 17.4322C8.25592 17.4419 8.28074 17.4469 8.30581 17.4469H8.74889C8.7742 17.4472 8.79933 17.4425 8.82278 17.433C8.84624 17.4235 8.86755 17.4094 8.88544 17.3915C8.90334 17.3736 8.91746 17.3523 8.92697 17.3288C8.93648 17.3054 8.94118 17.2803 8.9408 17.2549V16.8683H9.87777V16.4676Z" fill="white"/>
</g>
<rect x="0.5" y="0.5" width="23" height="23" rx="5.5" stroke="#D9D9D6"/>
<defs>
<clipPath id="clip0_27_10717">
<rect width="24" height="24" rx="6" fill="white"/>
</clipPath>
</defs>
</svg>
