<svg width="24" height="22" viewBox="0 0 24 22" fill="none" xmlns="http://www.w3.org/2000/svg">
<path d="M24 5.75V19.25C24 20.5156 22.9688 21.5 21.75 21.5H2.25C0.984375 21.5 0 20.5156 0 19.25V5.75C0 4.53125 0.984375 3.5 2.25 3.5H6.375L6.9375 2C7.26562 1.10938 8.10938 0.5 9.04688 0.5H14.9062C15.8438 0.5 16.6875 1.10938 17.0156 2L17.625 3.5H21.75C22.9688 3.5 24 4.53125 24 5.75ZM17.625 12.5C17.625 9.40625 15.0938 6.875 12 6.875C8.85938 6.875 6.375 9.40625 6.375 12.5C6.375 15.6406 8.85938 18.125 12 18.125C15.0938 18.125 17.625 15.6406 17.625 12.5ZM16.125 12.5C16.125 14.7969 14.25 16.625 12 16.625C9.70312 16.625 7.875 14.7969 7.875 12.5C7.875 10.25 9.70312 8.375 12 8.375C14.25 8.375 16.125 10.25 16.125 12.5Z" fill="black"/>
</svg>
