<svg width="24" height="25" viewBox="0 0 24 25" fill="none" xmlns="http://www.w3.org/2000/svg">
<rect y="0.5" width="24" height="24" rx="4" fill="#F3F3F3"/>
<path d="M18.5625 15.5996V7.71875C18.5625 6.95703 17.918 6.3125 17.1562 6.3125L6.84375 6.3125C6.05273 6.3125 5.4375 6.95703 5.4375 7.71875L5.4375 18.0312C5.4375 18.8223 6.05273 19.4375 6.84375 19.4375H14.6953C15.0176 19.4375 15.457 19.2617 15.6914 19.0273L18.123 16.5957C18.3574 16.3613 18.5625 15.9219 18.5625 15.5996ZM14.8125 17.9434V15.6875H17.0391L14.8125 17.9434ZM17.1562 7.71875V14.2812H14.1094C13.6992 14.2812 13.4062 14.6035 13.4062 14.9844V18.0312H6.84375L6.84375 7.71875L17.1562 7.71875Z" fill="#1D1D1B"/>
</svg>
