<svg width="10" height="10" viewBox="0 0 10 10" fill="none" xmlns="http://www.w3.org/2000/svg">
<path d="M5 8.75H8.75" stroke="currentColor" stroke-linecap="square" />
<path
        d="M8.125 2.96527L7.77145 2.61172L7.77145 2.61172L8.125 2.96527ZM3.125 7.96527L3.28311 8.43961L3.39509 8.40229L3.47855 8.31883L3.125 7.96527ZM1.25 8.59027L0.775658 8.43216C0.715769 8.61183 0.76253 8.80991 0.896447 8.94383C1.03036 9.07774 1.22845 9.1245 1.40811 9.06461L1.25 8.59027ZM1.875 6.71527L1.52145 6.36172L1.43798 6.44518L1.40066 6.55716L1.875 6.71527ZM6.875 1.71527L7.22855 2.06883L7.22856 2.06882L6.875 1.71527ZM7.77144 2.06882C7.86583 2.16321 7.89053 2.23308 7.89838 2.27232C7.90697 2.31525 7.90312 2.36227 7.88503 2.41654C7.86625 2.47289 7.83556 2.52589 7.80603 2.56723C7.79196 2.58693 7.77993 2.60149 7.77279 2.60973C7.76928 2.61378 7.76713 2.6161 7.76673 2.61652C7.76654 2.61672 7.7668 2.61644 7.76757 2.61565C7.76795 2.61526 7.76846 2.61473 7.76911 2.61408C7.76943 2.61375 7.76978 2.61339 7.77017 2.613C7.77037 2.6128 7.77057 2.61259 7.77079 2.61238C7.77089 2.61228 7.77106 2.61211 7.77111 2.61206C7.77128 2.61189 7.77145 2.61172 8.125 2.96527C8.47855 3.31883 8.47872 3.31865 8.4789 3.31848C8.47897 3.31841 8.47915 3.31823 8.47927 3.31811C8.47952 3.31786 8.47978 3.31759 8.48005 3.31732C8.48059 3.31678 8.48117 3.31619 8.4818 3.31556C8.48304 3.3143 8.48443 3.31287 8.48598 3.31127C8.48907 3.30808 8.49277 3.30421 8.497 3.29968C8.50545 3.29065 8.51612 3.27892 8.52848 3.26467C8.55307 3.23629 8.58499 3.19714 8.61976 3.14848C8.68788 3.0531 8.77437 2.91079 8.83372 2.73277C8.89375 2.55267 8.92897 2.32624 8.87896 2.07621C8.82822 1.82248 8.69667 1.57984 8.47856 1.36172L7.77144 2.06882ZM7.77145 2.61172L2.77145 7.61172L3.47855 8.31883L8.47855 3.31883L7.77145 2.61172ZM2.96689 7.49093L1.09189 8.11593L1.40811 9.06461L3.28311 8.43961L2.96689 7.49093ZM1.72434 8.74839L2.34934 6.87339L1.40066 6.55716L0.775658 8.43216L1.72434 8.74839ZM2.22855 7.06883L7.22855 2.06883L6.52145 1.36172L1.52145 6.36172L2.22855 7.06883ZM6.875 1.71527C7.22856 2.06882 7.22839 2.06899 7.22822 2.06916C7.22817 2.06921 7.228 2.06938 7.22789 2.06949C7.22768 2.0697 7.22747 2.0699 7.22728 2.0701C7.22688 2.07049 7.22652 2.07085 7.2262 2.07117C7.22554 2.07181 7.22502 2.07232 7.22462 2.07271C7.22383 2.07347 7.22355 2.07373 7.22375 2.07354C7.22418 2.07314 7.22649 2.07099 7.23055 2.06748C7.23879 2.06034 7.25335 2.04831 7.27305 2.03424C7.31439 2.00471 7.36739 1.97402 7.42374 1.95523C7.47802 1.93714 7.52503 1.9333 7.56796 1.94189C7.6072 1.94973 7.67706 1.97444 7.77144 2.06882L8.47856 1.36172C8.26044 1.1436 8.0178 1.01205 7.76408 0.961306C7.51404 0.911297 7.28761 0.946518 7.10751 1.00655C6.92948 1.0659 6.78717 1.15239 6.6918 1.22052C6.64313 1.25528 6.60399 1.2872 6.57561 1.3118C6.56135 1.32415 6.54963 1.33482 6.54059 1.34327C6.53606 1.34751 6.5322 1.3512 6.529 1.35429C6.52741 1.35584 6.52598 1.35724 6.52472 1.35848C6.52409 1.3591 6.5235 1.35968 6.52295 1.36022C6.52268 1.36049 6.52242 1.36075 6.52217 1.361C6.52204 1.36113 6.52186 1.36131 6.5218 1.36137C6.52162 1.36155 6.52144 1.36172 6.875 1.71527Z"
        fill="currentColor"
    />
</svg>
