<svg width="20" height="20" viewBox="0 0 20 20" fill="none" xmlns="http://www.w3.org/2000/svg">
<path d="M10 17.5H17.5" stroke="currentColor" stroke-width="2.5" stroke-linecap="square" />
<path
        d="M16.25 5.93055L15.3661 5.04665L15.3661 5.04666L16.25 5.93055ZM6.25 15.9305L6.64528 17.1164L6.92523 17.0231L7.13388 16.8144L6.25 15.9305ZM2.5 17.1805L1.31415 16.7853C1.16442 17.2344 1.28133 17.7296 1.61612 18.0644C1.95091 18.3992 2.44612 18.5161 2.89528 18.3664L2.5 17.1805ZM3.75 13.4305L2.86612 12.5467L2.65746 12.7553L2.56415 13.0353L3.75 13.4305ZM13.75 3.43055L14.6339 4.31443L14.6339 4.31442L13.75 3.43055ZM15.3661 4.31442C15.5239 4.47226 15.5466 4.5688 15.5516 4.59367C15.5584 4.62776 15.5586 4.67693 15.5329 4.75402C15.5055 4.8363 15.458 4.91997 15.4086 4.98915C15.3857 5.0213 15.3666 5.04428 15.3567 5.05572C15.3518 5.06128 15.3497 5.06356 15.3509 5.06225C15.3515 5.06158 15.353 5.05998 15.3555 5.0574C15.3568 5.05611 15.3583 5.05457 15.36 5.05279C15.3609 5.05189 15.3619 5.05093 15.3629 5.04991C15.3634 5.0494 15.3639 5.04887 15.3645 5.04833C15.3647 5.04806 15.3651 5.04764 15.3653 5.0475C15.3657 5.04708 15.3661 5.04665 16.25 5.93055C17.1339 6.81444 17.1343 6.814 17.1348 6.81356C17.1349 6.81341 17.1354 6.81296 17.1357 6.81265C17.1363 6.81203 17.1369 6.81139 17.1376 6.81072C17.1389 6.8094 17.1403 6.80799 17.1418 6.80649C17.1447 6.80349 17.148 6.80014 17.1516 6.79645C17.1587 6.78906 17.1671 6.78029 17.1766 6.77016C17.1955 6.74993 17.219 6.72413 17.2459 6.69307C17.2994 6.63127 17.3682 6.54683 17.4429 6.44226C17.5888 6.23801 17.7758 5.93106 17.9046 5.54459C18.0352 5.15293 18.1134 4.65523 18.0031 4.10338C17.8909 3.54231 17.6011 3.01384 17.1339 2.54667L15.3661 4.31442ZM15.3661 5.04666L5.36612 15.0467L7.13388 16.8144L17.1339 6.81443L15.3661 5.04666ZM5.85472 14.7447L2.10472 15.9947L2.89528 18.3664L6.64528 17.1164L5.85472 14.7447ZM3.68585 17.5758L4.93585 13.8258L2.56415 13.0353L1.31415 16.7853L3.68585 17.5758ZM4.63388 14.3144L14.6339 4.31443L12.8661 2.54666L2.86612 12.5467L4.63388 14.3144ZM13.75 3.43055C14.6339 4.31442 14.6335 4.31485 14.633 4.31527C14.6329 4.31541 14.6325 4.31583 14.6322 4.3161C14.6317 4.31664 14.6311 4.31716 14.6306 4.31767C14.6296 4.31868 14.6287 4.31963 14.6278 4.32051C14.626 4.32227 14.6244 4.32376 14.6231 4.32501C14.6206 4.32751 14.619 4.32902 14.6183 4.32964C14.617 4.33087 14.6193 4.3287 14.6248 4.32388C14.6363 4.31396 14.6593 4.29489 14.6914 4.27192C14.7606 4.2225 14.8443 4.17507 14.9265 4.14764C15.0036 4.12194 15.0528 4.1221 15.0869 4.12892C15.1117 4.13389 15.2083 4.15658 15.3661 4.31442L17.1339 2.54667C16.6667 2.0795 16.1383 1.78969 15.5772 1.67747C15.0253 1.56709 14.5276 1.64538 14.136 1.77594C13.7495 1.90476 13.4425 2.0917 13.2383 2.2376C13.1337 2.3123 13.0493 2.38111 12.9875 2.43467C12.9564 2.46159 12.9306 2.48506 12.9104 2.50398C12.9003 2.51346 12.8915 2.52184 12.8841 2.52899C12.8804 2.53256 12.8771 2.53583 12.8741 2.53878C12.8726 2.54026 12.8711 2.54166 12.8698 2.54297C12.8692 2.54363 12.8685 2.54427 12.8679 2.54488C12.8676 2.54519 12.8671 2.54564 12.867 2.54579C12.8665 2.54624 12.8661 2.54667 13.75 3.43055Z"
        fill="currentColor"
    />
</svg>
